<mxfile host="app.diagrams.net" modified="2024-06-11T11:24:08.301Z" agent="Mozilla/5.0 (X11; Ubuntu; Linux x86_64; rv:126.0) Gecko/20100101 Firefox/126.0" etag="q8G3fCuAfl-hmFNhOy4b" version="24.5.2" type="device">
  <diagram name="Page-1" id="BgnvXJOyl7Jt4QpFNVP1">
    <mxGraphModel dx="2280" dy="1267" grid="1" gridSize="10" guides="1" tooltips="1" connect="1" arrows="1" fold="1" page="1" pageScale="1" pageWidth="850" pageHeight="1100" math="0" shadow="0">
      <root>
        <mxCell id="0" />
        <mxCell id="1" parent="0" />
        <mxCell id="206bn7A2HN7HQTcte3nt-2" value="" style="rounded=0;whiteSpace=wrap;html=1;fillColor=#f5f5f5;fontColor=#333333;strokeColor=#666666;" parent="1" vertex="1">
          <mxGeometry x="90" y="10" width="980" height="350" as="geometry" />
        </mxCell>
        <mxCell id="206bn7A2HN7HQTcte3nt-3" value="&lt;font style=&quot;font-size: 25px;&quot;&gt;Client&lt;/font&gt;" style="text;html=1;align=center;verticalAlign=middle;whiteSpace=wrap;rounded=0;" parent="1" vertex="1">
          <mxGeometry x="110" y="30" width="60" height="30" as="geometry" />
        </mxCell>
        <mxCell id="206bn7A2HN7HQTcte3nt-11" style="edgeStyle=orthogonalEdgeStyle;rounded=0;orthogonalLoop=1;jettySize=auto;html=1;" parent="1" source="206bn7A2HN7HQTcte3nt-5" target="206bn7A2HN7HQTcte3nt-7" edge="1">
          <mxGeometry relative="1" as="geometry" />
        </mxCell>
        <mxCell id="206bn7A2HN7HQTcte3nt-12" style="edgeStyle=orthogonalEdgeStyle;rounded=0;orthogonalLoop=1;jettySize=auto;html=1;" parent="1" source="206bn7A2HN7HQTcte3nt-5" target="206bn7A2HN7HQTcte3nt-8" edge="1">
          <mxGeometry relative="1" as="geometry" />
        </mxCell>
        <mxCell id="206bn7A2HN7HQTcte3nt-13" style="edgeStyle=orthogonalEdgeStyle;rounded=0;orthogonalLoop=1;jettySize=auto;html=1;" parent="1" source="206bn7A2HN7HQTcte3nt-5" target="206bn7A2HN7HQTcte3nt-9" edge="1">
          <mxGeometry relative="1" as="geometry" />
        </mxCell>
        <mxCell id="206bn7A2HN7HQTcte3nt-19" style="edgeStyle=orthogonalEdgeStyle;rounded=0;orthogonalLoop=1;jettySize=auto;html=1;" parent="1" source="206bn7A2HN7HQTcte3nt-5" target="206bn7A2HN7HQTcte3nt-18" edge="1">
          <mxGeometry relative="1" as="geometry" />
        </mxCell>
        <mxCell id="206bn7A2HN7HQTcte3nt-5" value="Tasker Section" style="rounded=0;whiteSpace=wrap;html=1;fillColor=#dae8fc;strokeColor=#6c8ebf;" parent="1" vertex="1">
          <mxGeometry x="110" y="220" width="310" height="115" as="geometry" />
        </mxCell>
        <mxCell id="206bn7A2HN7HQTcte3nt-20" style="edgeStyle=orthogonalEdgeStyle;rounded=0;orthogonalLoop=1;jettySize=auto;html=1;" parent="1" source="206bn7A2HN7HQTcte3nt-6" target="206bn7A2HN7HQTcte3nt-15" edge="1">
          <mxGeometry relative="1" as="geometry" />
        </mxCell>
        <mxCell id="206bn7A2HN7HQTcte3nt-21" style="edgeStyle=orthogonalEdgeStyle;rounded=0;orthogonalLoop=1;jettySize=auto;html=1;" parent="1" source="206bn7A2HN7HQTcte3nt-6" target="206bn7A2HN7HQTcte3nt-16" edge="1">
          <mxGeometry relative="1" as="geometry" />
        </mxCell>
        <mxCell id="206bn7A2HN7HQTcte3nt-22" style="edgeStyle=orthogonalEdgeStyle;rounded=0;orthogonalLoop=1;jettySize=auto;html=1;" parent="1" source="206bn7A2HN7HQTcte3nt-6" target="206bn7A2HN7HQTcte3nt-17" edge="1">
          <mxGeometry relative="1" as="geometry" />
        </mxCell>
        <mxCell id="206bn7A2HN7HQTcte3nt-6" value="Users Component" style="rounded=0;whiteSpace=wrap;html=1;fillColor=#dae8fc;strokeColor=#6c8ebf;" parent="1" vertex="1">
          <mxGeometry x="440" y="220" width="300" height="115" as="geometry" />
        </mxCell>
        <mxCell id="206bn7A2HN7HQTcte3nt-7" value="&lt;div&gt;Other UI&lt;br&gt;&lt;/div&gt;&lt;div&gt;Components&lt;br&gt;&lt;/div&gt;" style="rounded=1;whiteSpace=wrap;html=1;fillColor=#d5e8d4;strokeColor=#82b366;" parent="1" vertex="1">
          <mxGeometry x="110" y="110" width="70" height="60" as="geometry" />
        </mxCell>
        <mxCell id="206bn7A2HN7HQTcte3nt-8" value="New Task Input" style="rounded=1;whiteSpace=wrap;html=1;fillColor=#d5e8d4;strokeColor=#82b366;" parent="1" vertex="1">
          <mxGeometry x="190" y="110" width="70" height="60" as="geometry" />
        </mxCell>
        <mxCell id="206bn7A2HN7HQTcte3nt-9" value="Task Component" style="rounded=1;whiteSpace=wrap;html=1;fillColor=#d5e8d4;strokeColor=#82b366;" parent="1" vertex="1">
          <mxGeometry x="270" y="110" width="70" height="60" as="geometry" />
        </mxCell>
        <mxCell id="206bn7A2HN7HQTcte3nt-23" style="edgeStyle=orthogonalEdgeStyle;rounded=0;orthogonalLoop=1;jettySize=auto;html=1;" parent="1" source="206bn7A2HN7HQTcte3nt-14" target="206bn7A2HN7HQTcte3nt-24" edge="1">
          <mxGeometry relative="1" as="geometry">
            <mxPoint x="1110" y="170" as="targetPoint" />
          </mxGeometry>
        </mxCell>
        <mxCell id="206bn7A2HN7HQTcte3nt-25" style="edgeStyle=orthogonalEdgeStyle;rounded=0;orthogonalLoop=1;jettySize=auto;html=1;entryX=0.5;entryY=1;entryDx=0;entryDy=0;" parent="1" source="206bn7A2HN7HQTcte3nt-14" target="206bn7A2HN7HQTcte3nt-27" edge="1">
          <mxGeometry relative="1" as="geometry">
            <mxPoint x="855" y="175" as="targetPoint" />
          </mxGeometry>
        </mxCell>
        <mxCell id="206bn7A2HN7HQTcte3nt-29" style="edgeStyle=orthogonalEdgeStyle;rounded=0;orthogonalLoop=1;jettySize=auto;html=1;" parent="1" source="206bn7A2HN7HQTcte3nt-14" target="206bn7A2HN7HQTcte3nt-28" edge="1">
          <mxGeometry relative="1" as="geometry" />
        </mxCell>
        <mxCell id="206bn7A2HN7HQTcte3nt-14" value="Core" style="rounded=0;whiteSpace=wrap;html=1;fillColor=#dae8fc;strokeColor=#6c8ebf;" parent="1" vertex="1">
          <mxGeometry x="760" y="220" width="270" height="115" as="geometry" />
        </mxCell>
        <mxCell id="206bn7A2HN7HQTcte3nt-15" value="Login Component" style="rounded=1;whiteSpace=wrap;html=1;fillColor=#d5e8d4;strokeColor=#82b366;" parent="1" vertex="1">
          <mxGeometry x="440" y="110" width="90" height="60" as="geometry" />
        </mxCell>
        <mxCell id="206bn7A2HN7HQTcte3nt-16" value="Register Component" style="rounded=1;whiteSpace=wrap;html=1;fillColor=#d5e8d4;strokeColor=#82b366;" parent="1" vertex="1">
          <mxGeometry x="545" y="110" width="90" height="60" as="geometry" />
        </mxCell>
        <mxCell id="206bn7A2HN7HQTcte3nt-17" value="Settings Component" style="rounded=1;whiteSpace=wrap;html=1;fillColor=#d5e8d4;strokeColor=#82b366;" parent="1" vertex="1">
          <mxGeometry x="650" y="110" width="90" height="60" as="geometry" />
        </mxCell>
        <mxCell id="206bn7A2HN7HQTcte3nt-18" value="Tasker Component" style="rounded=1;whiteSpace=wrap;html=1;fillColor=#d5e8d4;strokeColor=#82b366;" parent="1" vertex="1">
          <mxGeometry x="350" y="110" width="70" height="60" as="geometry" />
        </mxCell>
        <mxCell id="206bn7A2HN7HQTcte3nt-24" value="&lt;div&gt;Network&lt;/div&gt;&lt;div&gt;Tools&lt;/div&gt;" style="ellipse;whiteSpace=wrap;html=1;fillColor=#ffe6cc;strokeColor=#d79b00;" parent="1" vertex="1">
          <mxGeometry x="750" y="110" width="60" height="60" as="geometry" />
        </mxCell>
        <mxCell id="206bn7A2HN7HQTcte3nt-27" value="&lt;div&gt;Auth&lt;/div&gt;&lt;div&gt;Tools&lt;/div&gt;" style="ellipse;whiteSpace=wrap;html=1;fillColor=#ffe6cc;strokeColor=#d79b00;" parent="1" vertex="1">
          <mxGeometry x="970" y="110" width="60" height="60" as="geometry" />
        </mxCell>
        <mxCell id="206bn7A2HN7HQTcte3nt-28" value="&lt;div&gt;Common&lt;/div&gt;&lt;div&gt;Components&lt;br&gt;&lt;/div&gt;" style="rounded=1;whiteSpace=wrap;html=1;fillColor=#d5e8d4;strokeColor=#82b366;" parent="1" vertex="1">
          <mxGeometry x="820" y="115" width="140" height="50" as="geometry" />
        </mxCell>
        <mxCell id="JmL1aV7B15Kx-tEZnW_a-1" value="" style="rounded=0;whiteSpace=wrap;html=1;fillColor=#f5f5f5;fontColor=#333333;strokeColor=#666666;" vertex="1" parent="1">
          <mxGeometry x="90" y="640" width="970" height="580" as="geometry" />
        </mxCell>
        <mxCell id="JmL1aV7B15Kx-tEZnW_a-2" value="Controller Layer (REST Controllers: UsersController, TaskController, ...)" style="rounded=0;whiteSpace=wrap;html=1;fillColor=#dae8fc;strokeColor=#6c8ebf;" vertex="1" parent="1">
          <mxGeometry x="110" y="720" width="780" height="70" as="geometry" />
        </mxCell>
        <mxCell id="JmL1aV7B15Kx-tEZnW_a-3" value="&lt;div&gt;Tasker Service&lt;/div&gt;" style="rounded=0;whiteSpace=wrap;html=1;fillColor=#dae8fc;strokeColor=#6c8ebf;" vertex="1" parent="1">
          <mxGeometry x="110" y="810" width="380" height="115" as="geometry" />
        </mxCell>
        <mxCell id="JmL1aV7B15Kx-tEZnW_a-4" value="&lt;div&gt;Users Service&lt;/div&gt;" style="rounded=0;whiteSpace=wrap;html=1;fillColor=#dae8fc;strokeColor=#6c8ebf;" vertex="1" parent="1">
          <mxGeometry x="510" y="810" width="380" height="115" as="geometry" />
        </mxCell>
        <mxCell id="JmL1aV7B15Kx-tEZnW_a-5" value="Repository Layer" style="rounded=0;whiteSpace=wrap;html=1;fillColor=#dae8fc;strokeColor=#6c8ebf;" vertex="1" parent="1">
          <mxGeometry x="110" y="950" width="780" height="70" as="geometry" />
        </mxCell>
        <mxCell id="JmL1aV7B15Kx-tEZnW_a-6" value="" style="shape=cylinder3;whiteSpace=wrap;html=1;boundedLbl=1;backgroundOutline=1;size=15;fillColor=#dae8fc;gradientColor=#7ea6e0;strokeColor=#6c8ebf;" vertex="1" parent="1">
          <mxGeometry x="402.5" y="1050" width="195" height="140" as="geometry" />
        </mxCell>
        <mxCell id="JmL1aV7B15Kx-tEZnW_a-9" value="&lt;div&gt;Communicates with&amp;nbsp;&lt;/div&gt;&lt;div&gt;Tasker Service&lt;/div&gt;" style="ellipse;shape=cloud;whiteSpace=wrap;html=1;" vertex="1" parent="1">
          <mxGeometry x="150" y="445" width="220" height="120" as="geometry" />
        </mxCell>
        <mxCell id="JmL1aV7B15Kx-tEZnW_a-10" value="&lt;div&gt;Communicates with&lt;/div&gt;&lt;div&gt;Users Service&lt;/div&gt;" style="ellipse;shape=cloud;whiteSpace=wrap;html=1;" vertex="1" parent="1">
          <mxGeometry x="480" y="440" width="220" height="130" as="geometry" />
        </mxCell>
        <mxCell id="JmL1aV7B15Kx-tEZnW_a-11" value="" style="endArrow=classic;html=1;rounded=0;" edge="1" parent="1" target="JmL1aV7B15Kx-tEZnW_a-9">
          <mxGeometry width="50" height="50" relative="1" as="geometry">
            <mxPoint x="259.29" y="335" as="sourcePoint" />
            <mxPoint x="259.29" y="395" as="targetPoint" />
          </mxGeometry>
        </mxCell>
        <mxCell id="JmL1aV7B15Kx-tEZnW_a-12" value="" style="endArrow=classic;html=1;rounded=0;" edge="1" parent="1" source="206bn7A2HN7HQTcte3nt-6">
          <mxGeometry width="50" height="50" relative="1" as="geometry">
            <mxPoint x="690" y="430" as="sourcePoint" />
            <mxPoint x="590" y="440" as="targetPoint" />
          </mxGeometry>
        </mxCell>
        <mxCell id="JmL1aV7B15Kx-tEZnW_a-13" value="" style="endArrow=classic;html=1;rounded=0;exitX=0.55;exitY=0.95;exitDx=0;exitDy=0;exitPerimeter=0;" edge="1" parent="1" source="JmL1aV7B15Kx-tEZnW_a-10" target="JmL1aV7B15Kx-tEZnW_a-2">
          <mxGeometry width="50" height="50" relative="1" as="geometry">
            <mxPoint x="650" y="680" as="sourcePoint" />
            <mxPoint x="700" y="630" as="targetPoint" />
            <Array as="points">
              <mxPoint x="601" y="600" />
              <mxPoint x="500" y="600" />
            </Array>
          </mxGeometry>
        </mxCell>
        <mxCell id="JmL1aV7B15Kx-tEZnW_a-14" value="" style="endArrow=classic;html=1;rounded=0;exitX=0.55;exitY=0.95;exitDx=0;exitDy=0;exitPerimeter=0;entryX=0.5;entryY=0;entryDx=0;entryDy=0;" edge="1" parent="1" source="JmL1aV7B15Kx-tEZnW_a-9" target="JmL1aV7B15Kx-tEZnW_a-2">
          <mxGeometry width="50" height="50" relative="1" as="geometry">
            <mxPoint x="260" y="570" as="sourcePoint" />
            <mxPoint x="244" y="696" as="targetPoint" />
            <Array as="points">
              <mxPoint x="270" y="600" />
              <mxPoint x="500" y="600" />
            </Array>
          </mxGeometry>
        </mxCell>
        <mxCell id="JmL1aV7B15Kx-tEZnW_a-17" value="" style="rounded=1;whiteSpace=wrap;html=1;fillColor=#b0e3e6;strokeColor=#0e8088;" vertex="1" parent="1">
          <mxGeometry x="910" y="720" width="130" height="300" as="geometry" />
        </mxCell>
        <mxCell id="JmL1aV7B15Kx-tEZnW_a-18" value="Utils" style="text;html=1;align=center;verticalAlign=middle;whiteSpace=wrap;rounded=0;" vertex="1" parent="1">
          <mxGeometry x="945" y="852.5" width="60" height="30" as="geometry" />
        </mxCell>
        <mxCell id="JmL1aV7B15Kx-tEZnW_a-19" value="&amp;nbsp;" style="text;whiteSpace=wrap;html=1;" vertex="1" parent="1">
          <mxGeometry x="1150" y="730" width="40" height="40" as="geometry" />
        </mxCell>
        <mxCell id="JmL1aV7B15Kx-tEZnW_a-20" value="&lt;font style=&quot;font-size: 25px;&quot;&gt;Backend&lt;/font&gt;" style="text;html=1;align=center;verticalAlign=middle;whiteSpace=wrap;rounded=0;" vertex="1" parent="1">
          <mxGeometry x="110" y="670" width="100" height="30" as="geometry" />
        </mxCell>
      </root>
    </mxGraphModel>
  </diagram>
</mxfile>
